<?xml version="1.0" encoding="UTF-8"?>
<svg id="Layer_1" xmlns="http://www.w3.org/2000/svg" version="1.1" xmlns:xlink="http://www.w3.org/1999/xlink" viewBox="0 0 48 46">
  <!-- Generator: Adobe Illustrator 29.0.0, SVG Export Plug-In . SVG Version: 2.1.0 Build 186)  -->
  <defs>
    <style>
      .st0 {
        fill: url(#linear-gradient2);
      }

      .st1 {
        fill: url(#linear-gradient1);
      }

      .st2 {
        fill: url(#linear-gradient);
      }
    </style>
    <linearGradient id="linear-gradient" x1="1.7" y1="39.9" x2="38.6" y2="-.6" gradientUnits="userSpaceOnUse">
      <stop offset="0" stop-color="#ee0097"/>
      <stop offset="1" stop-color="#7060f7"/>
    </linearGradient>
    <linearGradient id="linear-gradient1" x1="1.6" y1="39.8" x2="38.5" y2="-.8" gradientTransform="translate(6.5 -6.5) rotate(18.8)" xlink:href="#linear-gradient"/>
    <linearGradient id="linear-gradient2" x1="8.8" y1="46.4" x2="45.7" y2="5.8" xlink:href="#linear-gradient"/>
  </defs>
  <g>
    <path class="st2" d="M9.1,42.4c-2.6,0-5-1.1-6.6-3-1.6-1.9-2.4-4.4-2.4-7.3,0-8.7,1.4-15.6,4.3-20.5,3-5.2,7.6-8,13.3-8s10.9,5.1,12.5,7.6h5.4c1.4,0,2.7.5,3.6,1.5,1,1,1.5,2.3,1.4,3.7-.3,7.6-2.4,13-12.5,16.2l-1.4-4.5c8.3-2.7,9.1-6.6,9.2-11.9,0-.1,0-.2-.1-.3,0,0-.1-.1-.3-.1h-8.1l-.7-1.2c0,0-3.5-6.3-9.2-6.3s-7,1.9-9.3,5.7c-2.4,4.1-3.6,10.4-3.6,18.1s1.7,5.7,4.4,5.7,5-1.9,5-5.3-1.6-16.1-1.6-16.2l4.6-.6c0,.5,1.7,12,1.7,16.8s-3.9,10-9.7,10Z"/>
    <ellipse class="st1" cx="22.9" cy="16.4" rx="2" ry="2.7" transform="translate(-4.1 8.2) rotate(-18.8)"/>
  </g>
  <path class="st0" d="M45.4,3.6c1.4,0,2.6,1.2,2.6,2.6s-1.2,2.6-2.6,2.6-2.6-1.2-2.6-2.6,1.2-2.6,2.6-2.6ZM45.4,8.3c1.2,0,2.1-1,2.1-2.1s-1-2.1-2.1-2.1-2.1,1-2.1,2.1,1,2.1,2.1,2.1ZM44.4,4.7h1.1c.7,0,1,.3,1,.9s-.3.8-.7.8l.8,1.3h-.6l-.7-1.2h-.4v1.2h-.5v-3ZM44.9,6h.4c.3,0,.7,0,.7-.4s-.4-.4-.7-.4h-.4v.8Z"/>
</svg>